<svg width="18" height="18" viewBox="0 0 18 18" fill="none" xmlns="http://www.w3.org/2000/svg">
<path d="M9.99917 1.26514C9.99917 0.712852 9.55145 0.265137 8.99917 0.265137C8.44688 0.265137 7.99917 0.712852 7.99917 1.26514H9.99917ZM8.99917 8.99964H7.99917C7.99917 9.55192 8.44688 9.99964 8.99917 9.99964V8.99964ZM16.7337 9.99964C17.286 9.99964 17.7337 9.55192 17.7337 8.99964C17.7337 8.44735 17.286 7.99964 16.7337 7.99964V9.99964ZM1.26465 9.00001L0.264648 8.99994L1.26465 9.00001ZM7.49073 1.41458L7.68575 2.39538L7.49073 1.41458ZM16.1451 6.04114L17.069 5.65852L17.069 5.65852L16.1451 6.04114ZM13.2958 15.4318L13.8514 16.2633L13.2958 15.4318ZM3.52975 14.4694L4.23689 13.7623H4.23689L3.52975 14.4694ZM8.99917 1.26514H7.99917V8.99964H8.99917H9.99917V1.26514H8.99917ZM8.99917 8.99964V9.99964H16.7337V8.99964V7.99964H8.99917V8.99964ZM1.26465 9.00001L2.26465 9.00008C2.26488 5.78724 4.5346 3.02197 7.68575 2.39538L7.49073 1.41458L7.2957 0.433786C3.20873 1.24645 0.264949 4.83295 0.264648 8.99994L1.26465 9.00001ZM7.49073 1.41458L7.68575 2.39538C10.8369 1.7688 13.9919 3.45541 15.2212 6.42377L16.1451 6.04114L17.069 5.65852C15.4746 1.80862 11.3827 -0.37888 7.2957 0.433786L7.49073 1.41458ZM16.1451 6.04114L15.2212 6.42377C16.4505 9.39213 15.4118 12.8155 12.7403 14.6003L13.2958 15.4318L13.8514 16.2633C17.3162 13.9485 18.6634 9.50841 17.069 5.65852L16.1451 6.04114ZM13.2958 15.4318L12.7403 14.6003C10.0688 16.3851 6.5086 16.0343 4.23689 13.7623L3.52975 14.4694L2.82261 15.1765C5.76896 18.1231 10.3865 18.5782 13.8514 16.2633L13.2958 15.4318ZM3.52975 14.4694L4.23689 13.7623C2.97396 12.4993 2.26452 10.7862 2.26465 9.00008L1.26465 9.00001L0.264648 8.99994C0.264481 11.3165 1.18461 13.5383 2.82261 15.1765L3.52975 14.4694Z" fill="#787878"/>
</svg>
