<svg width="16" height="18" viewBox="0 0 16 18" fill="none" xmlns="http://www.w3.org/2000/svg">
<path d="M6.67782 16.1959C6.808 16.4394 6.99939 16.6425 7.23198 16.7839C7.46456 16.9254 7.72982 17 8.00004 17C8.27025 17 8.53551 16.9254 8.7681 16.7839C9.00069 16.6425 9.19207 16.4394 9.32226 16.1959M3.33333 5.79872C3.33333 4.52602 3.825 3.30545 4.70017 2.40551C5.57534 1.50558 6.76232 1 8 1C9.23768 1 10.4247 1.50558 11.2998 2.40551C12.175 3.30545 12.6667 4.52602 12.6667 5.79872C12.6667 11.3972 15 12.9968 15 12.9968H1C1 12.9968 3.33333 11.3972 3.33333 5.79872Z" stroke="#787878" stroke-width="2" stroke-linecap="round" stroke-linejoin="round"/>
</svg>
