<svg width="15" height="21" viewBox="0 0 15 21" fill="none" xmlns="http://www.w3.org/2000/svg">
<path d="M13.7199 6.36673C13.4567 4.08489 11.5114 3.3657 9.07865 3.17188L9.01505 0.00195312L7.12147 0.0286708L7.18346 3.10097C6.68201 3.11531 6.18056 3.12965 5.67911 3.14399L5.63355 0.0426909L3.73998 0.0694086L3.80358 3.23933C3.39793 3.25203 2.99228 3.26473 2.60907 3.2713L0 3.32177L0.0338423 5.37202C0.0338423 5.37202 1.43638 5.30776 1.3975 5.34289C2.16391 5.32976 2.4249 5.77336 2.5047 6.16837L2.56433 9.78069C2.61523 9.79131 2.68257 9.77292 2.76194 9.80029C2.68859 9.7958 2.64369 9.80806 2.57034 9.80357L2.64813 14.8575C2.61849 15.1108 2.47823 15.4923 1.95433 15.5128C1.98279 15.5295 0.590666 15.5419 0.590666 15.5419L0.256559 17.8397L2.72494 17.8031C3.1815 17.8011 3.63805 17.799 4.07217 17.803L4.11934 21.002L6.01291 20.9752L5.94931 17.8053C6.47922 17.8077 6.95823 17.7995 7.45968 17.7852L7.51726 20.9322L9.41084 20.9055L9.36367 17.7066C12.5443 17.451 14.7513 16.6032 14.9827 13.5488C15.1565 11.0986 14.0056 10.0154 12.1893 9.6042C13.2455 9.0461 13.9164 8.02929 13.7199 6.36673ZM11.2012 13.2575C11.2519 15.6464 7.20695 15.4514 5.93909 15.4789L5.85776 11.2351C7.14807 11.2015 11.1488 10.771 11.2012 13.2575ZM10.2122 7.30005C10.2536 9.47079 6.88536 9.28726 5.83155 9.30533L5.75666 5.45199C6.83292 5.42779 10.1915 5.02554 10.2122 7.30005Z" fill="#242424"/>
</svg>
