<svg width="16" height="18" viewBox="0 0 16 18" fill="none" xmlns="http://www.w3.org/2000/svg">
<path fill-rule="evenodd" clip-rule="evenodd" d="M13.1986 1.631L14.7646 2.878C14.9159 3.02033 15.0011 3.21913 15 3.42681C14.9988 3.63448 14.9114 3.83234 14.7586 3.973L13.5686 5.397L9.51963 10.226C9.44881 10.3071 9.35441 10.3641 9.24963 10.389L7.14963 10.865C6.87412 10.8788 6.63427 10.6785 6.59863 10.405V8.247C6.60578 8.14296 6.64769 8.04435 6.71763 7.967L10.6916 3.474L12.0556 1.845C12.3255 1.49128 12.8191 1.39886 13.1986 1.631Z" stroke="#787878" stroke-width="2" stroke-linecap="round" stroke-linejoin="round"/>
<path d="M7.53203 4.37207C8.08432 4.37207 8.53203 3.92436 8.53203 3.37207C8.53203 2.81979 8.08432 2.37207 7.53203 2.37207V4.37207ZM4.73203 3.37207V2.37207L4.72963 2.37207L4.73203 3.37207ZM0.999032 7.12207H1.99903L1.99903 7.11993L0.999032 7.12207ZM0.999032 12.7471L1.99903 12.7492V12.7471H0.999032ZM4.73203 16.4971L4.72963 17.4971H4.73203V16.4971ZM10.332 16.4971V17.4971L10.3344 17.4971L10.332 16.4971ZM14.065 12.7471H13.065L13.065 12.7492L14.065 12.7471ZM15.065 8.99707C15.065 8.44479 14.6173 7.99707 14.065 7.99707C13.5127 7.99707 13.065 8.44479 13.065 8.99707H15.065ZM11.6164 3.09249C11.4056 2.58199 10.8209 2.33899 10.3104 2.54974C9.79995 2.76048 9.55695 3.34516 9.7677 3.85565L11.6164 3.09249ZM13.7849 6.3695C14.3241 6.25029 14.6647 5.71649 14.5455 5.17722C14.4262 4.63796 13.8924 4.29743 13.3532 4.41664L13.7849 6.3695ZM3.79903 12.6851C3.24675 12.6851 2.79903 13.1328 2.79903 13.6851C2.79903 14.2374 3.24675 14.6851 3.79903 14.6851V12.6851ZM11.266 14.6851C11.8183 14.6851 12.266 14.2374 12.266 13.6851C12.266 13.1328 11.8183 12.6851 11.266 12.6851V14.6851ZM7.53203 3.37207V2.37207H4.73203V3.37207V4.37207H7.53203V3.37207ZM4.73203 3.37207L4.72963 2.37207C2.11119 2.37836 -0.00657105 4.50577 -0.000965536 7.12421L0.999032 7.12207L1.99903 7.11993C1.99579 5.60585 3.22036 4.37571 4.73443 4.37207L4.73203 3.37207ZM0.999032 7.12207H-0.000967801V12.7471H0.999032H1.99903V7.12207H0.999032ZM0.999032 12.7471L-0.000965536 12.7449C-0.00657105 15.3634 2.11119 17.4908 4.72963 17.4971L4.73203 16.4971L4.73443 15.4971C3.22036 15.4934 1.99579 14.2633 1.99903 12.7492L0.999032 12.7471ZM4.73203 16.4971V17.4971H10.332V16.4971V15.4971H4.73203V16.4971ZM10.332 16.4971L10.3344 17.4971C12.9529 17.4908 15.0706 15.3634 15.065 12.7449L14.065 12.7471L13.065 12.7492C13.0683 14.2633 11.8437 15.4934 10.3296 15.4971L10.332 16.4971ZM14.065 12.7471H15.065V8.99707H14.065H13.065V12.7471H14.065ZM10.692 3.47407L9.7677 3.85565C9.97391 4.35517 10.3918 5.05932 11.0215 5.60723C11.6694 6.17094 12.621 6.62678 13.7849 6.3695L13.569 5.39307L13.3532 4.41664C12.988 4.49737 12.6622 4.3837 12.3343 4.09841C11.9883 3.79732 11.7322 3.37297 11.6164 3.09249L10.692 3.47407ZM3.79903 13.6851V14.6851H11.266V13.6851V12.6851H3.79903V13.6851Z" fill="#787878"/>
</svg>
