<svg width="16" height="18" viewBox="0 0 16 18" fill="none" xmlns="http://www.w3.org/2000/svg">
<path fill-rule="evenodd" clip-rule="evenodd" d="M13.1986 1.63149L14.7646 2.87849C14.9159 3.02082 15.0011 3.21962 15 3.42729C14.9988 3.63497 14.9114 3.83282 14.7586 3.97349L13.5686 5.39749L9.51963 10.2265C9.44881 10.3076 9.35441 10.3646 9.24963 10.3895L7.14963 10.8655C6.87412 10.8793 6.63427 10.679 6.59863 10.4055V8.24749C6.60578 8.14345 6.64769 8.04484 6.71763 7.96749L10.6916 3.47449L12.0556 1.84549C12.3255 1.49177 12.8191 1.39935 13.1986 1.63149Z" stroke="#242424" stroke-width="1.5" stroke-linecap="round" stroke-linejoin="round"/>
<path d="M7.53203 4.12305C7.94625 4.12305 8.28203 3.78726 8.28203 3.37305C8.28203 2.95883 7.94625 2.62305 7.53203 2.62305V4.12305ZM4.73203 3.37305V2.62304L4.73023 2.62305L4.73203 3.37305ZM0.999032 7.12305H1.74903L1.74903 7.12144L0.999032 7.12305ZM0.999032 12.748L1.74903 12.7497V12.748H0.999032ZM4.73203 16.498L4.73023 17.248H4.73203V16.498ZM10.332 16.498V17.248L10.3338 17.248L10.332 16.498ZM14.065 12.748H13.315L13.315 12.7497L14.065 12.748ZM14.815 8.99805C14.815 8.58383 14.4792 8.24805 14.065 8.24805C13.6508 8.24805 13.315 8.58383 13.315 8.99805H14.815ZM11.3856 3.18842C11.2276 2.80555 10.7891 2.6233 10.4062 2.78136C10.0233 2.93942 9.84107 3.37793 9.99913 3.7608L11.3856 3.18842ZM13.7313 6.12593C14.1357 6.03652 14.3911 5.63617 14.3017 5.23172C14.2123 4.82727 13.8119 4.57188 13.4075 4.66129L13.7313 6.12593ZM3.79883 12.9355C3.38461 12.9355 3.04883 13.2713 3.04883 13.6855C3.04883 14.0998 3.38461 14.4355 3.79883 14.4355V12.9355ZM11.2658 14.4355C11.68 14.4355 12.0158 14.0998 12.0158 13.6855C12.0158 13.2713 11.68 12.9355 11.2658 12.9355V14.4355ZM7.53203 3.37305V2.62305H4.73203V3.37305V4.12305H7.53203V3.37305ZM4.73203 3.37305L4.73023 2.62305C2.24983 2.62901 0.243724 4.64425 0.249034 7.12465L0.999032 7.12305L1.74903 7.12144C1.74549 5.46932 3.08171 4.12701 4.73383 4.12304L4.73203 3.37305ZM0.999032 7.12305H0.249032V12.748H0.999032H1.74903V7.12305H0.999032ZM0.999032 12.748L0.249034 12.7464C0.243724 15.2268 2.24983 17.2421 4.73023 17.248L4.73203 16.498L4.73383 15.748C3.08171 15.7441 1.74549 14.4018 1.74903 12.7497L0.999032 12.748ZM4.73203 16.498V17.248H10.332V16.498V15.748H4.73203V16.498ZM10.332 16.498L10.3338 17.248C12.8142 17.2421 14.8203 15.2268 14.815 12.7464L14.065 12.748L13.315 12.7497C13.3186 14.4018 11.9824 15.7441 10.3302 15.748L10.332 16.498ZM14.065 12.748H14.815V8.99805H14.065H13.315V12.748H14.065ZM10.6924 3.47461L9.99913 3.7608C10.194 4.23293 10.5917 4.90211 11.186 5.41916C11.7938 5.94807 12.6673 6.36114 13.7313 6.12593L13.5694 5.39361L13.4075 4.66129C12.9425 4.76408 12.5384 4.60765 12.1706 4.28756C11.7891 3.95561 11.5127 3.49629 11.3856 3.18842L10.6924 3.47461ZM3.79883 13.6855V14.4355H11.2658V13.6855V12.9355H3.79883V13.6855Z" fill="#242424"/>
</svg>
