<svg width="18" height="20" viewBox="0 0 18 20" fill="none" xmlns="http://www.w3.org/2000/svg">
<path d="M16.5248 10.9963C17.0771 10.9963 17.5248 10.5486 17.5248 9.9963C17.5248 9.44402 17.0771 8.9963 16.5248 8.9963V10.9963ZM16.5856 14.3626C17.1379 14.3626 17.5856 13.9149 17.5856 13.3626C17.5856 12.8103 17.1379 12.3626 16.5856 12.3626V14.3626ZM17.5114 9.83322C17.4214 9.28833 16.9066 8.91962 16.3617 9.00969C15.8168 9.09976 15.4481 9.61449 15.5382 10.1594L17.5114 9.83322ZM16.6041 10.9617H17.6041V10.9616L16.6041 10.9617ZM15.5888 13.2787C15.5449 13.8292 15.9555 14.3112 16.5061 14.3551C17.0566 14.399 17.5385 13.9884 17.5825 13.4378L15.5888 13.2787ZM15.5377 10.1567C15.6263 10.7019 16.1401 11.0719 16.6852 10.9833C17.2304 10.8947 17.6004 10.3809 17.5118 9.83578L15.5377 10.1567ZM12.7196 4.423C12.1892 4.26897 11.6344 4.57406 11.4803 5.10443C11.3263 5.63481 11.6314 6.18962 12.1618 6.34365L12.7196 4.423ZM17.5829 13.4359C17.6232 12.885 17.2092 12.4059 16.6584 12.3657C16.1076 12.3255 15.6285 12.7394 15.5883 13.2902L17.5829 13.4359ZM10.9031 18.684V19.684L10.9102 19.684L10.9031 18.684ZM7.10238 18.684L7.09447 19.684H7.10238V18.684ZM1.40137 12.8928L2.40137 12.9006V12.8928H1.40137ZM1.40137 10.9621H2.40137L2.40137 10.9611L1.40137 10.9621ZM2.69861 9.28219C2.88872 8.76366 2.62247 8.18919 2.10394 7.99908C1.58541 7.80897 1.01094 8.07521 0.820831 8.59375L2.69861 9.28219ZM12.1665 6.34501C12.6975 6.49703 13.2511 6.18984 13.4031 5.65889C13.5551 5.12793 13.248 4.57428 12.717 4.42227L12.1665 6.34501ZM10.903 5.16646L10.9046 4.16646H10.903V5.16646ZM7.10235 5.16646V4.16645L7.09772 4.16647L7.10235 5.16646ZM0.818986 8.59859C0.631639 9.11813 0.900934 9.69117 1.42047 9.87852C1.94001 10.0659 2.51305 9.79657 2.7004 9.27703L0.818986 8.59859ZM11.5665 5.86715C11.8336 6.35055 12.442 6.52589 12.9254 6.25878C13.4088 5.99168 13.5842 5.38327 13.3171 4.89988L11.5665 5.86715ZM11.5514 3.77203L10.6667 4.23821C10.6698 4.24406 10.6729 4.24988 10.6761 4.25567L11.5514 3.77203ZM8.72217 1.48653L8.45239 2.44945V2.44945L8.72217 1.48653ZM5.11736 1.96942L4.60365 1.11145L4.60046 1.11338L5.11736 1.96942ZM3.75781 2.79037L3.2409 1.93433C3.23612 1.93722 3.23136 1.94014 3.22663 1.94311L3.75781 2.79037ZM0.831926 9.31073C1.03795 9.82315 1.62037 10.0715 2.13278 9.8655C2.6452 9.65947 2.89358 9.07706 2.68755 8.56464L0.831926 9.31073ZM16.5248 9.9963V8.9963H14.4724V9.9963V10.9963H16.5248V9.9963ZM14.4724 9.9963V8.9963C12.9906 8.9963 11.7893 10.1976 11.7893 11.6795H12.7893H13.7893C13.7893 11.3022 14.0951 10.9963 14.4724 10.9963V9.9963ZM12.7893 11.6795H11.7893C11.7893 13.1613 12.9906 14.3626 14.4724 14.3626V13.3626V12.3626C14.0951 12.3626 13.7893 12.0568 13.7893 11.6795H12.7893ZM14.4724 13.3626V14.3626H16.5856V13.3626V12.3626H14.4724V13.3626ZM16.5248 9.9963L15.5382 10.1594C15.582 10.4246 15.6041 10.6929 15.6041 10.9617L16.6041 10.9617L17.6041 10.9616C17.6041 10.5836 17.5731 10.2062 17.5114 9.83322L16.5248 9.9963ZM16.6041 10.9617H15.6041V12.8924H16.6041H17.6041V10.9617H16.6041ZM16.6041 12.8924H15.6041C15.6041 13.0225 15.599 13.1513 15.5888 13.2787L16.5856 13.3583L17.5825 13.4378C17.5969 13.2569 17.6041 13.075 17.6041 12.8924H16.6041ZM16.5248 9.99625L17.5118 9.83578C17.0927 7.25794 15.2276 5.15136 12.7196 4.423L12.4407 5.38332L12.1618 6.34365C13.9286 6.85675 15.2425 8.34075 15.5377 10.1567L16.5248 9.99625ZM16.5856 13.363L15.5883 13.2902C15.4084 15.754 13.3661 17.6663 10.8959 17.684L10.9031 18.684L10.9102 19.684C14.423 19.6587 17.3271 16.9394 17.5829 13.4359L16.5856 13.363ZM10.9031 18.684V17.684H7.10238V18.684V19.684H10.9031V18.684ZM7.10238 18.684L7.11028 17.684C4.48912 17.6633 2.38095 15.5218 2.40134 12.9006L1.40137 12.8928L0.4014 12.8851C0.372419 16.6107 3.36887 19.6545 7.09447 19.6839L7.10238 18.684ZM1.40137 12.8928H2.40137V10.9621H1.40137H0.40137V12.8928H1.40137ZM1.40137 10.9621L2.40137 10.9611C2.40082 10.3884 2.50144 9.81997 2.69861 9.28219L1.75972 8.93797L0.820831 8.59375C0.542593 9.35266 0.400592 10.1548 0.401371 10.9631L1.40137 10.9621ZM12.4418 5.38364L12.717 4.42227C12.1276 4.25352 11.5177 4.16743 10.9046 4.16646L10.903 5.16646L10.9014 6.16646C11.3294 6.16714 11.7551 6.22723 12.1665 6.34501L12.4418 5.38364ZM10.903 5.16646V4.16646H7.10235V5.16646V6.16646H10.903V5.16646ZM7.10235 5.16646L7.09772 4.16647C4.28199 4.17952 1.77415 5.94978 0.818986 8.59859L1.75969 8.93781L2.7004 9.27703C3.37076 7.41803 5.13083 6.1756 7.10699 6.16645L7.10235 5.16646ZM12.4418 5.38351L13.3171 4.89988L12.4266 3.28839L11.5514 3.77203L10.6761 4.25567L11.5665 5.86715L12.4418 5.38351ZM11.5514 3.77203L12.436 3.30585C11.7188 1.94479 10.4734 0.938654 8.99195 0.523606L8.72217 1.48653L8.45239 2.44945C9.40483 2.71629 10.2056 3.36315 10.6667 4.23821L11.5514 3.77203ZM8.72217 1.48653L8.99195 0.523606C7.51053 0.108559 5.92361 0.321141 4.60366 1.11146L5.11736 1.96942L5.63107 2.82739C6.47969 2.31928 7.49996 2.18261 8.45239 2.44945L8.72217 1.48653ZM5.11736 1.96942L4.60046 1.11338L3.2409 1.93433L3.75781 2.79037L4.27471 3.64641L5.63427 2.82547L5.11736 1.96942ZM3.75781 2.79037L3.22663 1.94311C0.750294 3.49561 -0.258392 6.59896 0.831926 9.31073L1.75974 8.93769L2.68755 8.56464C1.95842 6.75118 2.63296 4.67585 4.28898 3.63763L3.75781 2.79037Z" fill="#787878"/>
</svg>
