<svg width="20" height="22" viewBox="0 0 20 22" fill="none" xmlns="http://www.w3.org/2000/svg">
<path d="M18.4903 12.2208C18.9666 12.5003 19.5793 12.3407 19.8588 11.8644C20.1383 11.388 19.9787 10.7753 19.5024 10.4958L18.4903 12.2208ZM2.8558 1.88848L2.3397 2.74509L2.34975 2.75099L2.8558 1.88848ZM1.54528 1.91836L0.990711 1.08622L0.990711 1.08622L1.54528 1.91836ZM1.01326 3.11641L0.0240623 3.263C0.0338437 3.32901 0.0502063 3.39386 0.0729055 3.45661L1.01326 3.11641ZM3.05465 11.6985C3.24254 12.2179 3.81586 12.4866 4.3352 12.2987C4.85455 12.1108 5.12324 11.5375 4.93536 11.0181L3.05465 11.6985ZM19.5024 12.2219C19.9787 11.9424 20.1383 11.3297 19.8588 10.8533C19.5793 10.377 18.9666 10.2174 18.4903 10.4969L19.5024 12.2219ZM2.8558 20.8292L2.34972 19.9666L2.33974 19.9727L2.8558 20.8292ZM1.54528 20.7993L0.990711 21.6315H0.990711L1.54528 20.7993ZM1.01326 19.6013L0.0729055 19.2611C0.0502063 19.3238 0.0338437 19.3887 0.0240623 19.4547L1.01326 19.6013ZM4.93536 11.6996C5.12324 11.1802 4.85455 10.6069 4.3352 10.419C3.81586 10.2311 3.24254 10.4998 3.05465 11.0192L4.93536 11.6996ZM18.9961 12.3597C19.5483 12.3597 19.9961 11.912 19.9961 11.3597C19.9961 10.8074 19.5483 10.3597 18.9961 10.3597V12.3597ZM3.99475 10.3597C3.44247 10.3597 2.99475 10.8074 2.99475 11.3597C2.99475 11.912 3.44247 12.3597 3.99475 12.3597V10.3597ZM18.9963 11.3583L19.5024 10.4958L3.36184 1.02597L2.8558 1.88848L2.34975 2.75099L18.4903 12.2208L18.9963 11.3583ZM2.8558 1.88848L3.37185 1.03192C2.63451 0.587692 1.70703 0.608843 0.990711 1.08622L1.54528 1.91836L2.09984 2.7505C2.17201 2.70241 2.26545 2.70028 2.33974 2.74503L2.8558 1.88848ZM1.54528 1.91836L0.990711 1.08622C0.274389 1.56361 -0.102131 2.41148 0.0240623 3.263L1.01326 3.11641L2.00246 2.96981C1.98974 2.88402 2.02768 2.7986 2.09984 2.7505L1.54528 1.91836ZM1.01326 3.11641L0.0729055 3.45661L3.05465 11.6985L3.995 11.3583L4.93536 11.0181L1.95361 2.77621L1.01326 3.11641ZM18.9963 11.3594L18.4903 10.4969L2.34975 19.9667L2.8558 20.8292L3.36184 21.6917L19.5024 12.2219L18.9963 11.3594ZM2.8558 20.8292L2.33974 19.9727C2.26545 20.0174 2.17201 20.0153 2.09984 19.9672L1.54528 20.7993L0.990711 21.6315C1.70703 22.1088 2.63451 22.13 3.37185 21.6858L2.8558 20.8292ZM1.54528 20.7993L2.09984 19.9672C2.02767 19.9191 1.98974 19.8337 2.00246 19.7479L1.01326 19.6013L0.0240623 19.4547C-0.102131 20.3062 0.274389 21.1541 0.990711 21.6315L1.54528 20.7993ZM1.01326 19.6013L1.95361 19.9415L4.93536 11.6996L3.995 11.3594L3.05465 11.0192L0.0729055 19.2611L1.01326 19.6013ZM18.9961 11.3597V10.3597H3.99475V11.3597V12.3597H18.9961V11.3597Z" fill="#787878"/>
</svg>
