<svg width="20" height="20" viewBox="0 0 20 20" fill="none" xmlns="http://www.w3.org/2000/svg">
<path fill-rule="evenodd" clip-rule="evenodd" d="M9.18894 18.1084C8.76433 18.1084 8.40212 17.8011 8.33295 17.3821C8.26931 17.0432 8.02528 16.7663 7.69704 16.6605C7.42959 16.5687 7.16808 16.4604 6.91403 16.3362C6.61173 16.1816 6.24908 16.2047 5.96885 16.3964C5.62973 16.6403 5.16388 16.6025 4.86846 16.3072L3.71942 15.1582C3.41019 14.8489 3.37001 14.3614 3.62444 14.0057C3.82066 13.719 3.84893 13.3493 3.69857 13.0362C3.5995 12.8186 3.51212 12.5959 3.43679 12.369C3.32892 12.0114 3.03113 11.7436 2.6642 11.674C2.22171 11.6033 1.89505 11.2232 1.89161 10.7751V9.33768C1.88926 8.82117 2.26231 8.37939 2.77193 8.29521C3.15853 8.22167 3.48135 7.95687 3.62907 7.59211C3.67309 7.48941 3.71942 7.38748 3.76807 7.28632C3.96454 6.90807 3.9374 6.45247 3.69741 6.10022C3.39728 5.68308 3.44336 5.10997 3.80629 4.74616L4.6507 3.90175C5.06717 3.48514 5.724 3.43122 6.20283 3.77434L6.22947 3.79287C6.58702 4.03352 7.042 4.0771 7.43874 3.9087C7.86317 3.75594 8.17598 3.39121 8.2623 2.94847L8.27388 2.90908C8.36926 2.32295 8.87541 1.89233 9.46925 1.89209H10.4886C11.0984 1.89181 11.6189 2.33291 11.7187 2.93457L11.7372 3.01565C11.8191 3.43979 12.1157 3.7908 12.5202 3.94229C12.9101 4.10963 13.3584 4.06593 13.7087 3.82646L13.7666 3.78476C14.2578 3.43072 14.9333 3.48517 15.3616 3.91333L16.1388 4.69172C16.5283 5.08341 16.5773 5.69936 16.2546 6.14771C16.0018 6.52244 15.9696 7.00398 16.1701 7.4091L16.2199 7.52493C16.3822 7.92045 16.7334 8.20716 17.1535 8.2871C17.7024 8.37658 18.1061 8.84987 18.1079 9.40602V10.6952C18.1077 11.1856 17.753 11.604 17.2693 11.6844C16.8714 11.7607 16.5473 12.0488 16.4249 12.435C16.3708 12.5894 16.3106 12.7439 16.2442 12.8983C16.0896 13.2376 16.1239 13.6331 16.3345 13.9408C16.6125 14.3274 16.5693 14.8585 16.2326 15.1952L15.1542 16.2748C14.8458 16.5831 14.3595 16.6228 14.0052 16.3686C13.7094 16.1665 13.3262 16.1443 13.009 16.3107C12.783 16.4226 12.551 16.522 12.3141 16.6084C11.9828 16.7227 11.7385 17.0063 11.6747 17.3508C11.6071 17.7844 11.2354 18.1051 10.7967 18.1084H9.18894Z" stroke="#787878" stroke-width="2" stroke-linecap="round" stroke-linejoin="round"/>
<path fill-rule="evenodd" clip-rule="evenodd" d="M12.7025 10.0002C12.7025 11.4926 11.4926 12.7025 10.0002 12.7025C8.50773 12.7025 7.29785 11.4926 7.29785 10.0002C7.29785 8.50773 8.50773 7.29785 10.0002 7.29785C11.4926 7.29785 12.7025 8.50773 12.7025 10.0002Z" stroke="#787878" stroke-width="2" stroke-linecap="round" stroke-linejoin="round"/>
</svg>
