<svg width="16" height="20" viewBox="0 0 16 20" fill="none" xmlns="http://www.w3.org/2000/svg">
<path d="M5.375 9.99893L7.125 11.7986L10.625 8.19923M15 10.8987C15 15.398 11.9375 17.6476 8.2975 18.9524C8.10689 19.0188 7.89985 19.0156 7.71125 18.9434C4.0625 17.6476 1 15.398 1 10.8987V4.5998C1 4.36115 1.09219 4.13227 1.25628 3.96351C1.42038 3.79476 1.64294 3.69995 1.875 3.69995C3.625 3.69995 5.8125 2.62013 7.335 1.25236C7.52037 1.08949 7.75618 1 8 1C8.24382 1 8.47963 1.08949 8.665 1.25236C10.1963 2.62913 12.375 3.69995 14.125 3.69995C14.3571 3.69995 14.5796 3.79476 14.7437 3.96351C14.9078 4.13227 15 4.36115 15 4.5998V10.8987Z" stroke="#787878" stroke-width="2" stroke-linecap="round" stroke-linejoin="round"/>
</svg>
