<svg width="22" height="22" viewBox="0 0 22 22" fill="none" xmlns="http://www.w3.org/2000/svg">
<path fill-rule="evenodd" clip-rule="evenodd" d="M1.83332 10.998C1.83332 6.72079 4.59248 3.11392 8.35994 1.94312V-0.00195312C3.55664 1.20663 0 5.67272 0 10.998C0 16.3233 3.55664 20.7894 8.35994 21.998V20.0529C4.59248 18.8916 1.83332 15.2753 1.83332 10.998ZM14.9416 13.1036C14.9416 10.8885 13.0083 10.4659 11.3596 10.1055C10.1341 9.83758 9.06581 9.60406 9.06581 8.69418C9.06581 7.92938 9.66165 7.43838 10.7983 7.43838C12.155 7.43838 12.6225 8.11821 12.7691 9.03409H14.6391C14.4723 7.31526 13.5146 6.22999 11.9166 5.9067V4.38861H10.0833V5.8525C8.33276 6.08213 7.23249 7.13219 7.23249 8.69418C7.23249 10.931 9.1876 11.3954 10.844 11.7889C12.0614 12.0781 13.1175 12.329 13.1175 13.2169C13.1175 14.0101 12.375 14.5388 11.1191 14.5388C9.47832 14.5388 8.93747 13.7929 8.73582 12.7637H6.91166C7.02982 14.6464 8.15686 15.8246 10.0833 16.1186V17.6075H11.9166V16.1385C13.7968 15.8882 14.9416 14.7616 14.9416 13.1036ZM13.64 1.94312V-0.00194887C18.4432 1.20663 22 5.67272 22 10.998C22 16.3233 18.4432 20.7894 13.64 21.998V20.0529C17.4075 18.8822 20.1665 15.2753 20.1665 10.998C20.1665 6.72079 17.4075 3.11392 13.64 1.94312Z" fill="black"/>
</svg>
